<svg width="375" height="47" viewBox="0 0 375 47" fill="none" xmlns="http://www.w3.org/2000/svg">
<path fill-rule="evenodd" clip-rule="evenodd" d="M297.804 23.4999H296.637C295.993 23.4999 295.471 24.0036 295.471 24.6249V34.3749C295.471 34.9963 295.993 35.4999 296.637 35.4999H297.804C298.448 35.4999 298.971 34.9963 298.971 34.3749V24.6249C298.971 24.0036 298.448 23.4999 297.804 23.4999ZM291.147 26.1251H292.314C292.958 26.1251 293.48 26.6287 293.48 27.2501V34.3751C293.48 34.9964 292.958 35.5001 292.314 35.5001H291.147C290.503 35.5001 289.98 34.9964 289.98 34.3751V27.2501C289.98 26.6287 290.503 26.1251 291.147 26.1251ZM286.824 28.7499H285.657C285.013 28.7499 284.49 29.2535 284.49 29.8749V34.3749C284.49 34.9962 285.013 35.4999 285.657 35.4999H286.824C287.468 35.4999 287.99 34.9962 287.99 34.3749V29.8749C287.99 29.2535 287.468 28.7499 286.824 28.7499ZM281.333 30.9998H280.167C279.522 30.9998 279 31.5035 279 32.1248V34.3748C279 34.9961 279.522 35.4998 280.167 35.4998H281.333C281.978 35.4998 282.5 34.9961 282.5 34.3748V32.1248C282.5 31.5035 281.978 30.9998 281.333 30.9998Z" fill="white"/>
<path fill-rule="evenodd" clip-rule="evenodd" d="M313.971 25.846C316.438 25.8461 318.81 26.8167 320.597 28.5571C320.732 28.6915 320.947 28.6898 321.08 28.5533L322.367 27.2234C322.434 27.1542 322.471 27.0604 322.471 26.9629C322.47 26.8653 322.432 26.772 322.364 26.7036C317.672 22.0988 310.27 22.0988 305.578 26.7036C305.51 26.772 305.471 26.8652 305.471 26.9628C305.47 27.0603 305.507 27.1541 305.574 27.2234L306.862 28.5533C306.994 28.69 307.209 28.6917 307.344 28.5571C309.132 26.8166 311.504 25.846 313.971 25.846ZM313.971 30.1727C315.326 30.1726 316.633 30.6884 317.638 31.62C317.774 31.7522 317.988 31.7493 318.12 31.6135L319.405 30.2836C319.473 30.2139 319.511 30.1192 319.51 30.0209C319.509 29.9226 319.469 29.8287 319.4 29.7604C316.341 26.8463 311.604 26.8463 308.545 29.7604C308.475 29.8287 308.436 29.9226 308.435 30.021C308.434 30.1193 308.472 30.214 308.54 30.2836L309.825 31.6135C309.957 31.7493 310.171 31.7522 310.307 31.62C311.311 30.689 312.617 30.1732 313.971 30.1727ZM316.546 33.084C316.548 33.1826 316.51 33.2777 316.441 33.3468L314.218 35.6445C314.153 35.712 314.064 35.75 313.971 35.75C313.878 35.75 313.789 35.712 313.724 35.6445L311.501 33.3468C311.432 33.2776 311.394 33.1825 311.396 33.0839C311.398 32.9853 311.44 32.8919 311.511 32.8258C312.931 31.596 315.011 31.596 316.431 32.8258C316.502 32.892 316.544 32.9854 316.546 33.084Z" fill="white"/>
<g clip-path="url(#clip0_201_861)">
<rect opacity="0.4" x="329.471" y="23.5" width="24" height="12" rx="3.5" stroke="white"/>
<path opacity="0.5" d="M354.971 27.5V31.5C355.777 31.1612 356.301 30.3731 356.301 29.5C356.301 28.6269 355.777 27.8388 354.971 27.5Z" fill="white"/>
<rect x="330.971" y="25" width="17" height="9" rx="2" fill="white"/>
</g>
<path d="M44.0166 23.7231C41.4185 23.7231 39.5674 25.4995 39.5674 27.9316V27.9482C39.5674 30.2227 41.1777 31.8994 43.4771 31.8994C45.1206 31.8994 46.1665 31.061 46.6064 30.1147H46.7725C46.7725 30.2061 46.7642 30.2974 46.7642 30.3887C46.6729 32.6797 45.8677 34.5391 43.9668 34.5391C42.9126 34.5391 42.1738 33.9912 41.8584 33.1528L41.8335 33.0698H39.7251L39.7417 33.1611C40.1235 34.9956 41.7671 36.2988 43.9668 36.2988C46.98 36.2988 48.7979 33.9082 48.7979 29.874V29.8574C48.7979 25.541 46.5732 23.7231 44.0166 23.7231ZM44.0083 30.2559C42.647 30.2559 41.6592 29.2598 41.6592 27.8735V27.8569C41.6592 26.5205 42.7134 25.4663 44.0332 25.4663C45.3613 25.4663 46.3989 26.5371 46.3989 27.9067V27.9233C46.3989 29.2764 45.3613 30.2559 44.0083 30.2559ZM52.0664 28.2388C52.8301 28.2388 53.3862 27.6577 53.3862 26.9272C53.3862 26.1885 52.8301 25.6157 52.0664 25.6157C51.311 25.6157 50.7466 26.1885 50.7466 26.9272C50.7466 27.6577 51.311 28.2388 52.0664 28.2388ZM52.0664 34.3979C52.8301 34.3979 53.3862 33.8252 53.3862 33.0864C53.3862 32.3477 52.8301 31.7749 52.0664 31.7749C51.311 31.7749 50.7466 32.3477 50.7466 33.0864C50.7466 33.8252 51.311 34.3979 52.0664 34.3979ZM61.1455 36H63.1958V33.7007H64.8062V31.9326H63.1958V24.022H60.166C58.5391 26.4956 56.8374 29.2515 55.2852 31.9492V33.7007H61.1455V36ZM57.2773 31.9824V31.8579C58.4395 29.8242 59.8257 27.6079 61.0542 25.7319H61.1787V31.9824H57.2773ZM69.27 36H71.4116V24.022H69.2783L66.1489 26.2217V28.2388L69.1289 26.1304H69.27V36Z" fill="white"/>
<defs>
<clipPath id="clip0_201_861">
<rect width="27.33" height="13" fill="white" transform="translate(328.971 23)"/>
</clipPath>
</defs>
</svg>
